<svg width="40" height="40" viewBox="0 0 40 40" fill="none" xmlns="http://www.w3.org/2000/svg">
<path d="M33.797 32.033L14.0515 37.3245C11.3998 38.0348 8.67711 36.4604 7.96684 33.8087L2.67533 14.0632C1.96506 11.4115 3.53949 8.68882 6.19116 7.97855L25.9367 2.68705C28.5883 1.97678 31.311 3.55121 32.0213 6.20288L37.3128 25.9484C38.0231 28.5882 36.4486 31.3227 33.797 32.033Z" fill="#D7DBF5"/>
<mask id="mask0" style="mask-type:alpha" maskUnits="userSpaceOnUse" x="2" y="2" width="36" height="36">
<path d="M33.797 32.033L14.0515 37.3245C11.3998 38.0348 8.67711 36.4604 7.96684 33.8087L2.67533 14.0632C1.96506 11.4115 3.53949 8.68882 6.19116 7.97855L25.9367 2.68705C28.5883 1.97678 31.311 3.55121 32.0213 6.20288L37.3128 25.9484C38.0231 28.5882 36.4486 31.3227 33.797 32.033Z" fill="#E1E4F4"/>
</mask>
<g mask="url(#mask0)">
<path d="M20.6925 43.4685C20.29 43.4685 19.8876 43.3619 19.5443 43.1607L-0.366953 31.6425C-0.686574 31.4531 -0.887817 31.1216 -0.887817 30.7546C-0.887817 30.3877 -0.698412 30.0444 -0.366953 29.8668L10.0148 23.8532C10.3581 23.652 10.7606 23.5454 11.1631 23.5454C11.5656 23.5454 11.9681 23.652 12.3114 23.8532L32.2581 35.3596C32.5777 35.549 32.7789 35.8804 32.7789 36.2474C32.7789 36.6262 32.5895 36.9577 32.2581 37.1352L21.8408 43.1607C21.4975 43.3619 21.095 43.4685 20.6925 43.4685Z" fill="#96EBCB"/>
<path d="M11.163 24.137C11.459 24.137 11.7549 24.2199 12.0153 24.3619L31.9502 35.8683C32.1396 35.9748 32.1633 36.1524 32.1633 36.2471C32.1633 36.3418 32.1396 36.5194 31.9502 36.6259L21.5448 42.6395C21.2844 42.7934 20.9884 42.8645 20.6925 42.8645C20.3965 42.8645 20.1006 42.7816 19.8401 42.6395L-0.0710742 31.1332C-0.260479 31.0266 -0.284155 30.8491 -0.284155 30.7544C-0.284155 30.6597 -0.260479 30.4821 -0.0710742 30.3756L10.3107 24.3619C10.5711 24.2199 10.8671 24.137 11.163 24.137ZM11.163 22.9414C10.6658 22.9414 10.1568 23.0716 9.7188 23.3321L-0.662965 29.3457C-1.75204 29.9731 -1.74021 31.5357 -0.662965 32.1631L19.2483 43.6694C19.6981 43.9299 20.1953 44.0601 20.6925 44.0601C21.1897 44.0601 21.6868 43.9299 22.1367 43.6694L32.5421 37.6558C33.6312 37.0284 33.6312 35.4658 32.5421 34.8384L12.6072 23.3321C12.1692 23.0716 11.672 22.9414 11.163 22.9414Z" fill="#8C95CB"/>
<path d="M7.93141 25.2144L8.92579 25.7944C9.22174 25.9601 9.2099 26.3863 8.92579 26.552L5.55201 28.4934C5.0785 28.7657 4.49845 28.7539 4.03677 28.4816L3.18445 27.9607L7.93141 25.2144Z" fill="#8C95CB"/>
</g>
<path fill-rule="evenodd" clip-rule="evenodd" d="M18.0057 3.38623C19.866 2.27906 22.1855 1.92507 24.6109 2.55709C29.938 3.94212 33.7971 9.54141 33.217 15.1644C32.6015 21.0478 27.1442 25.8303 23.1786 29.1448C23.1766 29.1458 23.1706 29.1502 23.1608 29.1574C23.101 29.2012 22.8998 29.3485 22.6247 29.4462L20.5387 30.6954L21.5558 29.398C20.9539 29.1084 20.5727 28.4908 20.5624 28.4701C17.4846 23.3206 13.294 16.0404 13.9095 10.157C14.117 8.14129 14.8653 6.41797 15.9842 5.09917L15.614 4.78242L18.0053 3.38556L18.0057 3.38623Z" fill="#FF1C44"/>
<path d="M25.5224 8.32227H15.9456V19.4853H25.5224V8.32227Z" fill="#141938"/>
<path d="M24.0189 8.23908C21.7934 7.65903 19.7928 9.07957 19.5561 11.3998C19.3075 13.72 20.9174 16.0757 23.1429 16.6558C25.3566 17.2358 27.3572 15.8153 27.6058 13.4832C27.8426 11.163 26.2326 8.8073 24.0189 8.23908Z" fill="#FAFBFF"/>
<path d="M22.2314 3.94186C16.9162 2.55683 12.1101 5.90694 11.53 11.5417C10.9145 17.4251 15.105 24.7054 18.1829 29.8549C18.1947 29.8785 18.6919 30.6835 19.4495 30.8847C20.148 31.0623 20.7754 30.5414 20.799 30.5296C24.7647 27.215 30.2219 22.4325 30.8375 16.5491C31.4176 10.9262 27.5584 5.32688 22.2314 3.94186ZM20.7517 18.0407C18.5262 17.4607 16.9281 15.1049 17.1648 12.7847C17.4134 10.4645 19.4022 9.04396 21.6277 9.62401C23.8414 10.2041 25.4513 12.548 25.2027 14.8682C24.966 17.2002 22.9772 18.6208 20.7517 18.0407Z" fill="#FF858D"/>
</svg>
