<svg width="40" height="40" viewBox="0 0 40 40" fill="none" xmlns="http://www.w3.org/2000/svg">
<path d="M33.8571 32.028L14.1149 37.3269C11.4655 38.0303 8.74566 36.4594 8.01882 33.8099L2.71988 14.0679C2.01648 11.4184 3.5874 8.69857 6.23688 7.97173L25.979 2.67276C28.6284 1.96936 31.3482 3.54028 32.0751 6.18976L37.3741 25.9319C38.1009 28.5813 36.5065 31.3012 33.8571 32.028Z" fill="#D7DBF5"/>
<path d="M26.143 32.1689L22.204 20.7738L25.2052 19.7422L28.6284 29.6132C28.8863 30.387 28.5815 31.231 27.8781 31.6296L26.612 32.3565C26.4244 32.4268 26.2134 32.3565 26.143 32.1689Z" fill="#FF858D"/>
<path d="M24.3378 31.5595L20.8677 21.5243L23.8688 20.4927L27.2921 30.3637C27.55 31.1375 27.2452 31.9816 26.5418 32.3801C25.6977 32.8725 24.6426 32.4739 24.3378 31.5595Z" fill="#141938"/>
<path d="M25.1348 2.22751C19.9297 -0.703322 13.3881 2.50887 12.544 8.44088L12.4971 8.79258C12.0516 11.9813 12.8722 15.1232 14.6542 17.6554L30.2696 7.8078C29.1911 5.48658 27.4326 3.54052 25.1348 2.22751Z" fill="#FF858D"/>
<path d="M14.6543 17.6318C15.686 19.0855 17.0224 20.3281 18.6402 21.2426C21.7352 23.0011 25.2991 22.579 27.8548 20.7033C29.6133 19.4137 30.8794 17.4442 31.2311 15.0526L31.278 14.7009C31.6062 12.2859 31.2311 9.89438 30.2463 7.78418L14.6543 17.6318Z" fill="#FF858D"/>
<path d="M16.8348 2.2041L14.8652 3.30611L25.1114 22.3213L27.1982 21.149L16.8348 2.2041Z" fill="#FF858D"/>
<path d="M16.7176 22.3448C12.2862 19.836 9.87121 14.8888 10.5746 9.87117L10.6215 9.51946C11.4656 3.61091 17.9837 0.375266 23.1889 3.3061C27.6203 5.79145 30.0588 10.7387 29.3554 15.7797L29.3085 16.1314C28.4879 22.0634 21.9228 25.2991 16.7176 22.3448Z" fill="#FFCA61"/>
<path d="M19.0388 2.2041V4.38465C20.1174 4.38465 21.149 4.66601 22.1338 5.20529C25.7915 7.26859 27.7845 11.3014 27.1983 15.4749L27.1514 15.8266C26.7059 18.9216 24.033 21.2663 20.8911 21.2663C19.8126 21.2663 18.7575 20.9849 17.7727 20.4222C14.1151 18.3589 12.1221 14.326 12.7317 10.1525L12.7786 9.80083C13.2241 6.70587 15.9204 4.36121 19.0388 4.36121V2.2041ZM19.0388 2.2041C15.006 2.2041 11.2311 5.11151 10.6215 9.51948L10.5746 9.87118C9.87121 14.8888 12.2862 19.836 16.7176 22.3448C18.0541 23.0951 19.4843 23.4468 20.8911 23.4468C24.924 23.4468 28.6989 20.5394 29.3085 16.1314L29.3554 15.7797C30.0588 10.7387 27.6203 5.79146 23.1889 3.30611C21.8759 2.55582 20.4456 2.2041 19.0388 2.2041Z" fill="#141938"/>
<path d="M14.8654 9.68343C14.7482 9.68343 14.6075 9.66 14.4903 9.6131C13.9275 9.40208 13.6462 8.79246 13.8337 8.22974C13.9041 8.04217 14.5137 6.40089 16.1315 5.93196C16.6942 5.76783 17.3039 6.09608 17.4914 6.6588C17.6556 7.22152 17.3273 7.83115 16.7646 8.01872C16.2019 8.18285 15.8971 8.98003 15.8971 8.98003C15.7095 9.40207 15.3109 9.68343 14.8654 9.68343Z" fill="#FAFBFF"/>
<path d="M21.8524 9.47266L17.21 15.1936L18.2651 16.5536L22.8372 10.856L21.8524 9.47266Z" fill="#FF1C44"/>
<path d="M21.8524 12.333C20.7504 11.7 20.1643 10.4807 20.3518 9.23805C20.516 8.18295 21.6883 7.59679 22.6262 8.13607C23.6813 8.74568 24.2674 9.94147 24.0798 11.1373L24.0564 11.2779C23.9157 12.2861 22.7668 12.8489 21.8524 12.333Z" fill="#FF1C44"/>
<path d="M22.04 11.2313C21.5242 10.9264 21.2193 10.3403 21.3131 9.73069C21.3835 9.21487 21.9462 8.93349 22.4151 9.19141C22.931 9.47277 23.2123 10.0589 23.1185 10.6451V10.7154C23.0247 11.2313 22.4855 11.4892 22.04 11.2313Z" fill="#FAFBFF"/>
<path d="M17.9135 14.162C17.0225 13.6462 15.8971 14.2089 15.7564 15.2171C15.6626 15.7799 15.7564 16.3426 15.9909 16.835L16.6943 16.0143L17.7963 17.1398L17.046 18.0542C17.0929 18.1011 17.1632 18.1245 17.2101 18.148C18.0776 18.6403 19.1796 18.1245 19.3203 17.1398L19.3437 16.9991C19.4844 15.8502 18.9217 14.7248 17.9135 14.162Z" fill="#FF1C44"/>
</svg>
